{"glyphs":{"0":{"ha":694,"x_min":54,"x_max":639,"o":"m 347 -16 q 195 24 255 -16 q 104 132 135 64 q 64 276 74 200 q 54 441 54 353 q 75 668 54 566 q 160 840 95 770 q 347 909 224 909 q 581 777 523 909 q 639 441 639 644 q 619 219 639 318 q 534 52 599 119 q 347 -16 469 -16 m 245 138 q 283 68 257 96 q 347 40 310 40 q 410 69 383 40 q 447 138 437 98 q 456 465 456 172 q 447 765 456 733 q 409 828 435 802 q 347 854 383 854 q 285 829 311 854 q 245 765 258 803 q 237 465 237 733 q 245 138 237 172 z "},"1":{"ha":694,"x_min":96,"x_max":597,"o":"m 115 0 l 115 71 l 268 71 l 268 772 q 96 750 196 750 l 96 821 q 383 909 290 821 l 416 909 q 439 888 435 905 l 439 71 l 597 71 l 597 0 l 115 0 z "},"2":{"ha":694,"x_min":69,"x_max":624,"o":"m 69 0 l 69 54 q 75 65 70 58 l 288 332 q 358 431 328 382 q 408 534 389 480 q 427 643 427 587 q 414 735 427 689 q 372 810 401 781 q 294 839 342 839 q 193 800 236 839 q 253 764 231 792 q 275 699 275 736 q 245 625 275 654 q 172 596 216 596 q 120 609 143 596 q 83 646 97 623 q 69 699 69 670 q 107 811 69 763 q 204 884 144 859 q 328 909 264 909 q 474 877 406 909 q 583 783 543 844 q 624 643 624 722 q 601 543 624 589 q 545 461 578 496 q 447 371 511 425 q 372 306 384 317 l 240 179 l 301 179 q 521 187 514 179 q 553 314 540 206 l 624 314 l 581 0 l 69 0 z "},"3":{"ha":694,"x_min":58,"x_max":635,"o":"m 192 92 q 321 50 245 50 q 400 109 384 50 q 416 252 416 167 l 416 256 q 399 398 416 340 q 318 456 382 456 l 250 456 q 232 473 235 459 l 232 494 q 250 511 236 508 l 306 515 q 381 581 361 515 q 401 718 401 646 q 387 814 401 779 q 321 850 372 850 q 208 804 254 850 q 271 771 248 799 q 294 705 294 744 q 266 635 294 664 q 196 607 237 607 q 124 635 153 607 q 96 705 96 663 q 163 851 96 793 q 321 909 231 909 q 418 899 370 909 q 507 867 467 889 q 573 807 548 844 q 597 717 597 770 q 574 618 597 664 q 510 539 550 572 q 419 485 470 505 q 529 441 480 472 q 606 362 578 410 q 635 253 635 315 q 592 105 635 166 q 477 15 549 45 q 321 -16 406 -16 q 228 -2 274 -16 q 143 40 182 12 q 81 109 104 68 q 58 199 58 150 q 90 276 58 244 q 168 307 121 307 q 223 293 198 307 q 262 254 248 279 q 277 199 277 229 q 254 130 277 159 q 192 92 231 102 z "},"4":{"ha":694,"x_min":39,"x_max":654,"o":"m 237 0 l 237 71 l 372 71 l 372 215 l 39 215 l 39 286 l 467 893 q 492 905 475 905 l 526 905 q 545 899 538 905 q 551 880 551 892 l 551 286 l 654 286 l 654 215 l 551 215 l 551 71 l 654 71 l 654 0 l 237 0 m 114 286 l 387 286 l 387 673 l 114 286 z "},"5":{"ha":694,"x_min":69,"x_max":624,"o":"m 168 125 q 225 70 191 90 q 300 50 260 50 q 400 113 379 50 q 421 277 421 175 l 421 281 q 342 513 421 513 q 255 495 286 513 q 201 448 224 477 q 168 418 177 420 l 144 418 q 122 440 126 423 l 122 888 q 144 909 126 905 l 150 908 q 346 865 243 865 q 543 908 448 865 q 550 909 549 909 q 570 893 565 909 l 570 872 q 521 801 562 842 q 446 739 480 760 q 268 689 363 689 q 201 694 231 689 l 201 525 q 342 568 258 568 q 547 489 470 568 q 624 279 624 409 q 581 120 624 187 q 464 19 538 54 q 300 -16 389 -16 q 183 17 237 -16 q 100 105 130 50 q 69 222 69 159 q 97 290 69 262 q 165 318 125 318 q 214 306 192 318 q 249 271 236 293 q 261 222 261 249 q 234 154 261 182 q 168 125 207 125 z "},"6":{"ha":694,"x_min":58,"x_max":635,"o":"m 347 -16 q 200 28 259 -16 q 111 139 141 71 q 70 287 81 207 q 58 449 58 367 q 98 674 58 570 q 219 844 137 779 q 424 909 302 909 q 552 860 504 909 q 600 730 600 810 q 574 667 600 693 q 511 642 547 642 q 448 667 474 642 q 421 730 421 693 q 444 791 421 765 q 500 819 467 817 q 424 850 474 850 q 310 797 348 850 q 263 674 273 743 q 253 522 253 606 q 363 583 294 583 q 510 545 448 583 q 604 440 572 507 q 635 286 635 373 q 558 68 635 151 q 347 -16 481 -16 m 347 50 q 401 65 377 50 q 433 109 425 81 q 440 285 440 140 l 440 289 q 435 469 440 441 q 405 512 427 496 q 354 528 383 528 q 273 460 291 528 q 254 307 254 393 l 254 283 q 271 121 254 191 q 347 50 287 50 z "},"7":{"ha":694,"x_min":78,"x_max":673,"o":"m 220 75 q 233 216 220 146 q 271 354 245 285 q 332 488 297 424 q 411 610 368 552 l 489 715 l 421 715 q 180 707 189 715 q 149 581 161 684 l 78 581 l 126 939 l 197 939 l 197 936 q 225 913 197 922 q 295 901 252 905 q 371 896 337 897 q 433 895 405 895 l 673 895 l 673 846 q 669 835 672 840 l 482 582 q 426 440 444 527 q 403 268 408 353 q 399 75 399 182 q 373 11 399 37 q 310 -16 347 -16 q 246 11 272 -16 q 220 75 220 37 z "},"8":{"ha":694,"x_min":58,"x_max":635,"o":"m 58 228 q 97 356 58 300 q 205 453 136 412 q 125 543 155 487 q 96 660 96 599 q 127 790 96 733 q 216 878 159 847 q 347 909 273 909 q 471 886 414 909 q 563 816 528 863 q 597 701 597 769 q 481 517 597 588 q 595 410 555 470 q 635 267 635 349 q 614 151 635 203 q 556 61 593 98 q 464 5 518 25 q 347 -16 410 -16 q 202 12 268 -16 q 97 93 136 39 q 58 228 58 148 m 347 50 q 463 86 416 50 q 510 189 510 122 q 492 251 510 222 q 444 300 474 281 l 269 412 q 205 331 227 380 q 183 228 183 281 q 227 100 183 151 q 347 50 271 50 m 256 663 l 419 557 q 470 622 452 586 q 488 701 488 659 q 450 808 488 767 q 346 850 412 850 q 247 824 288 850 q 205 743 205 798 q 220 697 205 719 q 256 663 234 675 z "},"9":{"ha":694,"x_min":58,"x_max":635,"o":"m 201 77 q 289 50 228 50 q 414 145 387 50 q 440 375 440 240 q 330 313 399 313 q 183 351 245 313 q 90 456 121 389 q 58 610 58 524 q 94 768 58 701 q 197 872 130 836 q 354 909 263 909 q 530 838 467 909 q 614 664 593 767 q 635 449 635 562 q 615 280 635 361 q 554 132 595 198 q 447 25 513 65 q 289 -16 380 -16 q 188 5 232 -16 q 118 67 144 26 q 93 164 93 108 q 119 228 93 201 q 183 254 145 254 q 247 228 221 254 q 272 164 272 202 q 253 107 272 132 q 201 77 234 83 m 258 427 q 288 384 266 400 q 339 368 310 368 q 407 407 385 368 q 434 492 429 446 q 440 593 440 538 l 440 612 q 436 716 440 667 q 412 808 431 766 q 354 850 393 850 q 285 812 307 850 q 258 726 263 774 q 253 612 253 677 l 253 608 q 258 427 253 456 z "},"«":{"ha":1042,"x_min":174,"x_max":868,"o":"m 174 0 l 174 868 l 868 868 l 868 0 l 174 0 m 846 22 l 846 846 l 196 846 l 196 22 l 846 22 z "},"¥":{"ha":925,"x_min":58,"x_max":867,"o":"m 71 0 l 58 296 l 129 296 q 132 240 130 261 q 137 199 134 219 q 147 172 140 179 q 298 161 158 161 l 627 161 q 695 162 665 161 q 748 165 725 163 q 778 172 772 167 q 791 217 787 181 q 796 296 795 252 l 867 296 l 854 0 l 71 0 m 193 351 l 193 640 l 264 640 l 264 576 l 661 576 l 661 640 l 732 640 l 732 351 l 661 351 l 661 415 l 264 415 l 264 351 l 193 351 m 65 672 l 78 953 l 847 953 l 860 672 l 789 672 q 771 782 785 768 q 624 791 761 791 l 301 791 q 154 782 164 791 q 136 672 140 768 l 65 672 z "},"³":{"ha":385,"x_min":33,"x_max":372,"o":"m 33 0 l 33 71 l 129 71 l 129 504 q 104 537 129 530 q 37 543 79 543 l 37 614 l 285 625 l 285 71 l 372 71 l 372 0 l 33 0 z "},"¿":{"ha":694,"x_min":39,"x_max":654,"o":"m 96 -122 l 176 35 q 100 104 132 61 q 54 198 68 147 q 39 302 39 248 q 59 432 39 372 q 120 536 80 492 q 218 605 160 581 q 347 629 277 629 q 467 608 412 629 l 547 765 l 597 741 l 517 583 q 620 466 586 541 q 654 302 654 390 q 616 140 654 212 q 509 31 578 69 q 347 -8 439 -8 q 227 11 285 -8 l 146 -147 l 96 -122 m 258 75 q 347 47 296 47 q 445 86 413 47 q 483 175 476 124 q 490 302 490 227 q 487 416 490 370 q 471 493 484 461 l 258 75 m 221 123 l 435 543 q 347 574 395 574 q 249 532 281 574 q 210 435 217 490 q 203 302 203 380 q 206 197 203 239 q 221 123 210 154 z "},"¢":{"ha":1157,"x_min":68,"x_max":1088,"o":"m 68 18 q 71 25 68 20 l 521 945 q 561 970 534 970 l 595 970 q 635 945 621 970 l 1086 25 q 1087 22 1087 23 q 1088 18 1088 20 q 1082 5 1088 11 q 1069 0 1077 0 l 86 0 q 73 5 79 0 q 68 18 68 11 m 232 174 l 786 174 l 509 739 l 232 174 z "},"£":{"ha":1079,"x_min":78,"x_max":1002,"o":"m 541 -16 q 348 20 434 -16 q 201 123 262 56 q 109 278 140 190 q 78 471 78 366 q 133 725 78 612 q 293 903 188 839 q 541 968 397 968 q 788 903 684 968 q 947 725 892 838 q 1002 471 1002 612 q 971 278 1002 367 q 880 122 940 189 q 733 20 819 56 q 541 -16 646 -16 m 342 157 q 427 74 374 104 q 541 43 480 43 q 653 74 600 43 q 737 157 706 104 q 777 251 762 199 q 795 355 791 302 q 799 471 799 408 q 787 652 799 574 q 737 794 776 729 q 653 880 707 847 q 541 913 600 913 q 463 898 501 913 q 394 856 425 883 q 342 794 362 829 q 302 699 316 751 q 285 591 289 646 q 281 471 281 536 q 284 356 281 408 q 302 252 288 304 q 342 157 317 199 m 359 345 l 359 612 l 431 612 l 431 566 l 648 566 l 648 612 l 720 612 l 720 345 l 648 345 l 648 392 l 431 392 l 431 345 l 359 345 z "},"¼":{"ha":777,"x_min":20,"x_max":737,"o":"m 20 0 l 20 71 l 115 71 l 115 546 l 20 546 l 20 616 l 115 616 l 115 783 q 161 894 115 851 q 272 955 206 937 q 404 972 338 972 q 608 927 517 972 q 699 781 699 882 q 652 661 699 712 q 533 585 605 609 q 645 504 600 555 q 714 387 691 453 q 737 248 737 321 q 654 59 737 125 q 447 -8 570 -8 q 352 27 393 -8 q 311 115 311 62 q 332 166 311 145 q 383 187 353 187 q 435 166 414 187 q 456 115 456 145 q 421 53 456 75 q 449 47 437 47 q 545 105 521 47 q 568 248 568 163 q 525 469 568 377 q 367 561 481 561 q 349 579 352 564 l 349 600 q 367 616 352 613 q 529 781 529 616 q 403 917 529 917 q 271 779 271 917 l 271 0 l 20 0 z "},"©":{"ha":1003,"x_min":78,"x_max":924,"o":"m 236 0 l 236 71 l 400 71 l 400 220 q 249 258 323 228 q 126 343 174 288 q 78 476 78 398 q 126 609 78 554 q 249 695 174 665 q 400 733 323 725 l 400 882 l 236 882 l 236 953 l 751 953 l 751 882 l 587 882 l 587 734 q 808 667 718 723 q 892 585 860 635 q 924 476 924 534 q 892 369 924 418 q 808 286 861 319 q 587 218 720 230 l 587 71 l 751 71 l 751 0 l 236 0 m 587 278 q 669 315 640 288 q 706 379 697 341 q 714 476 714 418 q 690 612 714 565 q 587 675 667 659 l 587 278 m 400 281 l 400 672 q 326 632 351 659 q 295 569 302 605 q 288 476 288 533 q 295 384 288 419 q 326 321 302 348 q 400 281 351 294 z "},"§":{"ha":1003,"x_min":78,"x_max":924,"o":"m 100 0 q 78 25 78 5 q 85 41 78 36 l 439 395 l 82 893 q 78 904 79 898 l 78 930 q 100 953 82 949 l 880 953 l 924 612 l 852 612 q 800 786 838 729 q 695 863 762 844 q 509 882 629 882 l 339 882 l 619 490 q 624 476 624 485 q 618 460 624 465 l 253 97 l 503 97 q 692 115 623 97 q 800 192 761 134 q 852 367 840 251 l 924 367 l 880 0 l 100 0 z "},"¨":{"ha":1079,"x_min":78,"x_max":1002,"o":"m 275 0 l 275 71 l 439 71 l 439 476 q 403 703 439 602 q 265 804 367 804 q 157 762 157 804 q 150 745 157 753 q 132 737 142 737 l 103 737 q 85 745 92 737 q 78 762 78 752 q 102 862 78 814 q 169 939 126 910 q 265 968 212 968 q 371 943 324 968 q 451 876 418 918 q 507 782 485 833 q 541 673 528 730 q 575 783 555 734 q 630 876 595 832 q 709 943 664 919 q 814 968 754 968 q 910 939 867 968 q 977 862 952 910 q 1002 762 1002 814 q 994 745 1002 752 q 977 737 987 737 l 947 737 q 929 745 936 737 q 922 762 922 752 q 814 804 922 804 q 677 703 712 804 q 642 476 642 601 l 642 71 l 806 71 l 806 0 l 275 0 z "},"­":{"ha":1003,"x_min":61,"x_max":940,"o":"m 113 0 l 61 283 l 132 283 q 163 163 150 175 q 248 149 180 149 l 301 149 q 211 310 277 207 q 111 481 144 414 q 78 635 78 549 q 138 821 78 746 q 295 932 198 897 q 501 968 392 968 q 657 948 582 968 q 793 888 732 928 q 888 784 853 848 q 924 635 924 720 q 892 485 924 552 q 792 314 860 418 q 700 149 724 210 l 754 149 q 839 163 821 149 q 869 283 852 176 l 940 283 l 889 0 l 642 0 q 619 28 619 7 q 629 157 619 96 q 661 325 639 218 q 694 500 684 433 q 705 636 705 568 q 688 774 705 713 q 624 874 670 836 q 501 913 578 913 q 377 874 423 913 q 314 774 332 835 q 296 636 296 713 q 318 441 296 549 q 361 222 340 332 q 382 28 382 111 q 359 0 382 6 l 113 0 z "},"Á":{"ha":1411,"x_min":102,"x_max":1372,"o":"m 562 -16 q 370 21 456 -16 q 224 123 283 57 q 133 278 164 189 q 102 471 102 367 q 156 725 102 611 q 316 903 211 838 q 562 968 420 968 q 692 960 610 968 q 807 953 774 953 l 1291 953 l 1333 612 l 1263 612 q 1241 735 1253 689 q 1205 813 1229 781 q 1135 864 1181 846 q 1017 882 1089 882 l 895 882 l 895 530 l 960 530 q 1058 545 1026 530 q 1102 594 1090 560 q 1114 693 1114 629 l 1185 693 l 1185 297 l 1114 297 q 1102 396 1114 362 q 1058 445 1090 430 q 960 460 1025 460 l 895 460 l 895 71 l 1028 71 q 1156 93 1105 71 q 1234 158 1206 116 q 1274 251 1261 200 q 1301 386 1287 302 l 1372 386 l 1308 0 l 807 0 q 681 -8 766 0 q 562 -16 595 -16 m 562 40 q 640 50 607 40 q 690 90 673 60 q 709 149 703 114 q 716 224 715 184 q 718 318 718 264 l 718 635 q 713 774 718 718 q 690 863 709 830 q 562 913 662 913 q 441 872 491 913 q 364 769 392 832 q 324 633 336 707 q 311 496 311 559 q 333 295 311 399 q 411 115 355 191 q 562 40 467 40 z "},"¤":{"ha":972,"x_min":49,"x_max":922,"o":"m 49 0 l 49 71 q 157 83 153 71 l 436 945 q 449 962 439 955 q 469 970 458 970 l 501 970 q 522 963 512 970 q 534 945 531 956 l 818 71 l 922 71 l 922 0 l 489 0 l 489 71 l 604 71 l 421 640 l 240 82 q 272 75 240 75 q 351 71 309 71 l 351 0 l 49 0 z "},"ª":{"ha":1079,"x_min":78,"x_max":1002,"o":"m 275 0 l 275 71 l 439 71 l 439 220 q 275 278 342 233 q 172 397 207 323 q 138 570 138 471 q 100 701 138 701 q 78 724 82 705 l 78 734 q 100 757 82 753 l 243 757 q 311 703 296 757 q 325 575 325 650 q 348 399 325 475 q 439 290 372 324 l 439 882 l 275 882 l 275 953 l 790 953 l 790 882 l 627 882 l 627 288 q 728 396 701 319 q 754 575 754 473 q 768 703 754 650 q 836 757 783 757 l 979 757 q 1002 734 998 753 l 1002 724 q 979 701 998 705 q 942 570 942 701 q 860 328 942 418 q 627 220 777 237 l 627 71 l 790 71 l 790 0 l 275 0 z "},"½":{"ha":1003,"x_min":39,"x_max":962,"o":"m 39 147 q 103 267 39 222 q 255 330 168 312 q 419 347 342 347 l 419 422 q 392 529 419 484 q 309 574 366 574 q 228 567 270 574 q 257 498 257 540 q 232 434 257 460 q 168 408 207 408 q 104 434 130 408 q 78 498 78 460 q 115 581 78 551 q 203 620 152 610 q 309 629 255 629 q 522 562 446 629 q 717 629 601 629 q 904 546 845 629 q 962 330 962 463 q 940 302 962 310 l 583 302 q 619 125 583 197 q 751 53 655 53 q 841 87 802 53 q 893 171 880 122 q 914 187 901 184 l 940 187 q 962 163 962 182 q 961 154 962 161 q 914 69 948 106 q 833 12 880 32 q 736 -8 787 -8 q 614 13 673 -8 q 513 74 555 33 q 405 10 469 28 q 269 -8 341 -8 q 111 30 182 -8 q 39 147 39 68 m 290 47 q 361 63 325 47 q 422 107 398 79 q 446 171 446 135 q 419 294 419 237 q 349 285 387 294 q 280 258 312 276 q 228 212 248 241 q 207 147 207 184 q 230 78 207 109 q 290 47 252 47 m 583 354 l 825 354 q 803 504 825 433 q 717 574 780 574 q 635 539 666 574 q 594 456 605 505 q 583 354 583 408 z "},"¦":{"ha":1088,"x_min":47,"x_max":1039,"o":"m 47 0 l 47 71 l 178 71 l 178 882 l 47 882 l 47 953 l 1039 953 l 1039 882 l 908 882 l 908 71 l 1039 71 l 1039 0 l 575 0 l 575 71 l 705 71 l 705 882 l 380 882 l 380 71 l 511 71 l 511 0 l 47 0 z "},"¾":{"ha":1079,"x_min":39,"x_max":1040,"o":"m 350 -8 q 186 32 256 -8 q 77 146 115 73 q 39 313 39 220 q 77 478 39 406 q 187 590 116 550 q 350 629 258 629 q 475 607 415 629 q 576 541 535 585 q 794 629 663 629 q 937 590 882 629 q 1016 483 991 550 q 1040 330 1040 416 q 1018 302 1040 310 l 660 302 q 828 53 660 53 q 918 87 878 53 q 971 171 958 122 q 991 187 979 184 l 1018 187 q 1040 163 1040 182 q 1039 154 1040 161 q 992 69 1026 106 q 911 12 958 32 q 814 -8 865 -8 q 579 83 669 -8 q 476 15 536 37 q 350 -8 416 -8 m 350 47 q 448 91 416 47 q 488 188 480 134 q 496 318 496 243 l 496 322 q 469 504 496 433 q 350 574 442 574 q 255 535 286 574 q 215 443 223 496 q 207 322 207 390 l 207 318 q 232 125 207 203 q 350 47 258 47 m 660 354 l 903 354 q 880 505 903 436 q 794 574 857 574 q 689 507 719 574 q 660 354 660 441 z "},"¡":{"ha":833,"x_min":47,"x_max":774,"o":"m 47 0 l 47 71 l 178 71 l 178 882 l 47 882 l 47 953 l 730 953 l 774 612 l 703 612 q 684 730 694 686 q 651 809 673 774 q 585 863 628 844 q 473 882 543 882 l 380 882 l 380 71 l 545 71 l 545 0 l 47 0 z "},"Â":{"ha":1079,"x_min":78,"x_max":1002,"o":"m 208 -53 l 272 60 q 127 235 176 124 q 78 471 78 346 q 133 725 78 612 q 293 903 188 839 q 541 968 397 968 q 754 921 656 968 l 818 1036 l 871 1006 l 807 892 q 917 780 874 847 q 981 634 960 713 q 1002 471 1002 554 q 971 278 1002 367 q 880 122 940 189 q 733 20 819 56 q 541 -16 646 -16 q 325 31 423 -16 l 261 -83 l 208 -53 m 368 109 q 446 58 401 75 q 541 40 491 40 q 620 53 580 40 q 692 92 659 66 q 746 153 725 117 q 790 285 782 212 q 799 471 799 358 q 791 657 799 583 q 750 790 783 732 l 368 109 m 328 161 l 710 843 q 541 913 640 913 q 459 899 499 913 q 387 859 420 886 q 334 798 354 833 q 298 705 309 757 q 283 600 286 652 q 281 471 281 547 q 288 291 281 361 q 328 161 296 221 z "},",":{"ha":385,"x_min":82,"x_max":319,"o":"m 129 -239 q 134 -225 129 -233 q 225 -112 188 -181 q 262 22 262 -43 q 193 0 234 0 q 137 15 163 0 q 97 55 111 29 q 82 111 82 81 q 114 190 82 158 q 193 222 146 222 q 288 169 256 222 q 319 49 319 115 q 281 -124 319 -42 q 175 -264 243 -206 q 160 -269 167 -269 q 139 -260 149 -269 q 129 -239 129 -250 z "},"M":{"ha":1320,"x_min":47,"x_max":1271,"o":"m 47 0 l 47 71 q 144 74 113 71 q 178 83 178 74 l 178 882 l 47 882 l 47 953 l 363 953 q 399 928 390 953 l 660 231 l 921 928 q 957 953 930 953 l 1271 953 l 1271 882 l 1140 882 l 1140 71 l 1271 71 l 1271 0 l 831 0 l 831 71 l 961 71 l 961 869 l 646 25 q 610 0 637 0 l 600 0 q 564 25 573 0 l 257 847 l 257 83 q 290 74 257 74 q 387 71 322 71 l 387 0 l 47 0 z "},"Z":{"ha":848,"x_min":78,"x_max":778,"o":"m 103 0 q 85 7 92 0 q 78 25 78 14 l 78 52 q 82 65 78 59 l 545 882 l 422 882 q 231 812 295 882 q 167 612 167 742 l 96 612 l 113 953 l 745 953 q 762 946 755 953 q 770 928 770 939 l 770 905 q 765 892 770 897 l 304 77 l 435 77 q 646 160 585 77 q 707 400 707 243 l 778 400 l 753 0 l 103 0 z "},"`":{"ha":385,"x_min":62,"x_max":304,"o":"m 193 472 q 97 526 131 472 q 62 646 62 579 q 80 762 62 704 q 130 869 98 820 q 211 957 163 918 q 227 964 218 964 q 247 954 237 964 q 257 933 257 945 q 249 917 257 923 q 157 803 194 872 q 119 668 119 734 q 193 694 150 694 q 272 662 239 694 q 304 583 304 629 q 272 504 304 536 q 193 472 240 472 z "},"_":{"ha":385,"x_min":82,"x_max":304,"o":"m 82 854 q 115 932 82 900 q 193 965 147 965 q 272 933 239 965 q 304 854 304 901 q 272 776 304 808 q 193 743 239 743 q 115 777 147 743 q 82 854 82 810 z "},"g":{"ha":694,"x_min":33,"x_max":673,"o":"m 33 -102 q 61 -30 33 -62 q 129 16 89 1 q 75 144 75 62 q 121 272 75 216 q 73 338 90 298 q 56 419 56 377 q 91 533 56 486 q 184 603 127 580 q 309 625 241 625 q 473 582 408 625 q 599 632 527 632 q 652 607 631 632 q 673 549 673 581 q 655 504 673 522 q 611 486 637 486 q 567 504 586 486 q 549 549 549 522 q 550 562 549 558 q 551 567 551 565 q 551 570 551 569 q 511 551 528 563 q 561 419 561 496 q 540 328 561 366 q 484 264 519 289 q 403 225 449 239 q 309 212 357 212 q 160 245 220 212 q 147 200 147 226 q 170 142 147 166 q 227 118 193 118 l 349 118 q 576 75 492 118 q 660 -102 660 31 q 629 -189 660 -154 q 551 -243 598 -223 q 449 -271 503 -262 q 347 -279 395 -279 q 207 -264 278 -279 q 84 -208 136 -248 q 33 -102 33 -168 m 158 -102 q 187 -173 158 -146 q 259 -212 216 -201 q 347 -224 302 -224 q 476 -195 418 -224 q 534 -102 534 -165 q 479 -35 534 -50 q 349 -21 425 -21 l 227 -21 q 176 -44 193 -21 q 158 -102 158 -66 m 309 268 q 372 289 352 268 q 397 340 393 310 q 401 416 401 370 l 401 421 q 397 498 401 468 q 372 549 393 528 q 309 570 352 570 q 245 549 267 570 q 219 498 224 528 q 215 421 215 469 l 215 416 q 219 340 215 370 q 245 289 224 310 q 309 268 266 268 z "},"t":{"ha":542,"x_min":26,"x_max":463,"o":"m 111 163 l 111 546 l 26 546 l 26 602 q 130 646 90 602 q 187 756 170 690 q 204 882 204 821 l 275 882 l 275 616 l 440 616 l 440 546 l 275 546 l 275 167 q 287 86 275 120 q 334 53 298 53 q 379 89 366 53 q 392 167 392 125 l 392 245 l 463 245 l 463 163 q 445 82 463 122 q 395 17 428 42 q 319 -8 363 -8 q 169 33 227 -8 q 111 163 111 74 z "},"!":{"ha":424,"x_min":100,"x_max":325,"o":"m 102 111 q 134 190 102 157 q 212 222 165 222 q 291 190 258 222 q 323 111 323 157 q 290 33 323 65 q 212 0 257 0 q 134 33 167 0 q 102 111 102 65 m 178 336 l 102 867 q 101 872 102 869 q 100 879 100 876 q 116 930 100 907 q 159 966 133 954 q 212 979 184 979 q 266 966 240 979 q 308 930 292 954 q 325 879 325 907 q 325 872 325 875 q 323 867 324 870 l 249 336 q 231 318 245 322 l 195 318 q 178 336 179 322 z "},".":{"ha":385,"x_min":82,"x_max":304,"o":"m 82 111 q 115 189 82 156 q 193 222 147 222 q 272 190 239 222 q 304 111 304 157 q 271 33 304 65 q 193 0 238 0 q 115 33 149 0 q 82 111 82 66 z "},";":{"ha":385,"x_min":82,"x_max":309,"o":"m 129 -239 q 134 -225 129 -233 q 191 -156 163 -197 q 235 -70 219 -115 q 252 16 252 -26 q 193 0 227 0 q 137 15 163 0 q 97 55 111 29 q 82 111 82 81 q 114 190 82 158 q 193 222 146 222 q 281 168 254 222 q 309 49 309 114 q 274 -121 309 -40 q 175 -264 239 -201 q 160 -269 167 -269 q 139 -260 149 -269 q 129 -239 129 -250 m 82 505 q 115 584 82 551 q 193 616 147 616 q 272 585 239 616 q 304 505 304 553 q 272 427 304 458 q 193 395 239 395 q 115 427 147 395 q 82 505 82 460 z "},"B":{"ha":987,"x_min":47,"x_max":908,"o":"m 47 0 l 47 71 l 178 71 l 178 882 l 47 882 l 47 953 l 571 953 q 718 927 649 953 q 828 846 786 901 q 871 711 871 791 q 814 572 871 627 q 668 498 758 517 q 840 424 772 486 q 908 260 908 361 q 822 68 908 136 q 610 0 736 0 l 47 0 m 366 71 l 571 71 q 645 100 616 71 q 686 172 673 129 q 699 260 699 216 q 690 349 699 300 q 656 432 681 397 q 590 468 632 468 l 366 468 l 366 71 m 366 524 l 532 524 q 634 581 600 524 q 668 711 668 638 q 646 828 668 774 q 571 882 625 882 l 366 882 l 366 524 z "},"O":{"ha":1042,"x_min":78,"x_max":962,"o":"m 521 -16 q 334 21 416 -16 q 194 125 252 58 q 107 281 136 193 q 78 471 78 370 q 129 722 78 608 q 279 902 180 836 q 521 968 379 968 q 761 902 662 968 q 911 722 861 836 q 962 471 962 608 q 911 222 962 333 q 759 48 859 112 q 521 -16 659 -16 m 347 167 q 420 82 374 115 q 521 49 467 49 q 590 65 557 49 q 650 107 624 81 q 693 167 677 134 q 735 309 726 235 q 745 496 745 382 q 735 668 745 600 q 693 798 726 736 q 649 854 675 830 q 588 893 622 879 q 521 907 554 907 q 421 877 467 907 q 347 798 375 846 q 313 706 324 757 q 298 609 301 654 q 296 496 296 564 q 298 371 296 420 q 313 267 301 322 q 347 167 324 212 z "},"\"":{"ha":755,"x_min":46,"x_max":625,"o":"m 93 503 q 102 519 93 513 q 194 633 157 565 q 231 768 231 701 q 157 742 200 742 q 78 774 110 742 q 46 852 46 806 q 78 932 46 900 q 157 964 110 964 q 229 938 199 964 q 273 871 259 911 q 288 790 288 830 q 270 674 288 732 q 219 567 252 616 q 139 479 186 518 q 123 472 133 472 q 103 482 113 472 q 93 503 93 492 m 431 503 q 439 519 431 513 q 530 632 492 563 q 568 768 568 701 q 494 742 538 742 q 415 773 448 742 q 383 852 383 805 q 415 932 383 901 q 494 964 448 964 q 591 910 557 964 q 625 790 625 857 q 586 617 625 701 q 476 479 546 534 q 461 472 470 472 q 440 482 450 472 q 431 503 431 492 z "},"º":{"ha":1048,"x_min":374,"x_max":675,"o":"m 374 860 q 418 946 374 918 q 525 975 463 975 q 630 946 586 975 q 675 860 675 917 q 630 773 675 802 q 525 743 586 743 q 418 773 463 743 q 374 860 374 802 m 444 860 q 453 819 444 831 q 477 802 462 806 q 525 799 493 799 q 571 802 556 799 q 595 819 587 806 q 604 860 604 831 q 587 910 604 900 q 525 920 570 920 q 461 910 479 920 q 444 860 444 900 z "},"i":{"ha":385,"x_min":33,"x_max":372,"o":"m 33 0 l 33 71 l 129 71 l 129 504 q 104 537 129 530 q 37 543 79 543 l 37 614 l 285 625 l 285 71 l 372 71 l 372 0 l 33 0 m 77 854 q 109 933 77 901 q 187 965 140 965 q 267 933 235 965 q 298 854 298 901 q 267 776 298 808 q 187 743 235 743 q 109 776 140 743 q 77 854 77 808 z "},"v":{"ha":732,"x_min":31,"x_max":701,"o":"m 318 20 l 118 546 l 31 546 l 31 616 l 363 616 l 363 546 l 286 546 l 411 214 l 533 534 q 508 544 533 541 q 460 546 484 546 l 460 616 l 701 616 l 701 546 q 608 533 614 546 l 414 20 q 378 -5 405 -5 l 354 -5 q 318 20 327 -5 z "},"®":{"ha":810,"x_min":20,"x_max":928,"o":"m 20 0 l 20 71 l 115 71 l 115 546 l 37 546 l 37 616 l 115 616 l 115 765 q 151 866 115 824 q 239 930 186 907 q 353 962 292 952 q 468 972 414 972 q 596 926 543 972 q 787 972 674 972 q 886 937 844 972 q 928 848 928 902 q 902 785 928 811 q 840 760 876 760 q 777 785 803 760 q 751 848 751 811 q 782 917 751 892 l 774 917 q 678 871 711 917 q 646 761 646 825 l 646 616 l 782 616 l 782 546 l 654 546 l 654 71 l 775 71 l 775 0 l 403 0 l 403 71 l 498 71 l 498 546 l 271 546 l 271 71 l 367 71 l 367 0 l 20 0 m 262 616 l 498 616 l 498 760 q 464 831 464 784 q 505 907 464 882 q 447 917 481 917 q 316 877 370 917 q 262 761 262 838 l 262 616 z "},"#":{"ha":1157,"x_min":78,"x_max":1078,"o":"m 232 -228 q 233 -220 232 -227 l 329 151 l 118 151 q 90 165 102 153 q 78 193 78 177 q 89 221 78 209 q 118 236 100 233 l 353 236 l 411 461 l 118 461 q 90 475 102 463 q 78 503 78 487 q 89 531 78 519 q 118 546 100 543 l 435 546 l 536 930 q 551 954 540 945 q 578 964 562 964 q 607 951 595 964 q 619 922 619 939 l 619 914 l 522 546 l 739 546 l 840 930 q 854 955 844 945 q 882 964 865 964 q 911 952 899 964 q 924 922 924 940 l 924 914 l 827 546 l 1039 546 q 1067 531 1056 543 q 1078 503 1078 520 q 1066 474 1078 486 q 1039 461 1055 463 l 803 461 l 745 236 l 1039 236 q 1067 221 1056 233 q 1078 193 1078 210 q 1066 164 1078 176 q 1039 151 1055 153 l 721 151 l 621 -236 q 579 -269 610 -269 q 549 -257 562 -269 q 536 -228 536 -245 q 538 -220 536 -227 l 633 151 l 416 151 l 317 -236 q 301 -260 313 -250 q 275 -269 289 -269 q 245 -257 258 -269 q 232 -228 232 -245 m 440 236 l 657 236 l 715 461 l 498 461 l 440 236 z "},"=":{"ha":1079,"x_min":78,"x_max":1002,"o":"m 118 151 q 90 165 102 153 q 78 193 78 177 q 89 221 78 209 q 118 236 100 233 l 962 236 q 990 221 979 233 q 1002 193 1002 209 q 990 165 1002 177 q 962 151 978 153 l 118 151 m 118 461 q 90 475 102 463 q 78 503 78 487 q 89 531 78 519 q 118 546 100 543 l 962 546 q 990 531 979 543 q 1002 503 1002 519 q 990 475 1002 487 q 962 461 978 463 l 118 461 z "},"D":{"ha":1064,"x_min":47,"x_max":986,"o":"m 47 0 l 47 71 l 178 71 l 178 882 l 47 882 l 47 953 l 562 953 q 746 915 665 953 q 879 809 826 876 q 959 655 932 743 q 986 468 986 568 q 959 286 986 371 q 877 136 932 201 q 743 36 822 71 q 562 0 663 0 l 47 0 m 372 71 l 509 71 q 632 97 574 71 q 724 172 690 123 q 768 294 760 226 q 777 468 777 362 q 768 649 777 578 q 724 775 760 721 q 667 833 701 809 q 591 870 632 858 q 509 882 550 882 l 372 882 l 372 71 z "},"Q":{"ha":1042,"x_min":78,"x_max":971,"o":"m 521 -16 q 334 21 416 -16 q 194 125 252 58 q 107 281 136 193 q 78 471 78 370 q 129 722 78 608 q 279 902 180 836 q 521 968 379 968 q 761 902 662 968 q 911 722 861 836 q 962 471 962 608 q 936 289 962 376 q 856 133 910 201 q 715 26 801 65 q 763 -31 739 -10 q 819 -52 787 -52 q 889 -39 857 -52 q 921 3 921 -27 q 946 25 926 25 q 964 17 956 25 q 971 -3 971 8 q 956 -124 971 -62 q 903 -228 941 -186 q 804 -269 866 -269 q 703 -229 738 -269 q 656 -139 668 -189 q 633 -3 645 -89 q 521 -16 574 -16 m 452 103 q 471 60 452 74 q 521 46 491 46 q 618 74 574 46 q 521 163 591 163 q 488 155 505 163 q 462 134 472 148 q 452 103 452 119 m 396 92 l 396 103 q 413 161 396 134 q 459 203 431 188 q 521 218 488 218 q 667 114 607 218 q 714 190 696 146 q 741 278 732 233 q 751 367 749 323 q 753 471 753 410 q 749 593 753 544 q 735 692 746 642 q 699 790 724 743 q 625 874 673 842 q 521 907 577 907 q 416 875 463 907 q 342 790 370 843 q 297 651 307 725 q 288 471 288 576 q 290 360 288 406 q 303 264 293 315 q 336 168 313 213 q 396 92 359 122 z "},"k":{"ha":732,"x_min":20,"x_max":710,"o":"m 20 0 l 20 71 l 115 71 l 115 843 q 88 875 115 869 q 20 882 61 882 l 20 953 l 271 964 l 271 351 l 467 534 q 443 543 467 541 q 404 546 419 546 l 404 616 l 677 616 l 677 546 q 570 533 583 546 l 414 387 l 618 83 q 710 71 632 71 l 710 0 l 399 0 l 399 71 q 450 82 450 71 l 310 290 l 264 248 l 264 71 l 358 71 l 358 0 l 20 0 z "},"x":{"ha":732,"x_min":24,"x_max":710,"o":"m 24 0 l 24 71 q 147 83 136 71 l 300 293 l 127 546 l 31 546 l 31 616 l 349 616 l 349 546 l 289 546 l 383 408 l 473 534 q 450 543 473 541 q 410 546 426 546 l 410 616 l 685 616 l 685 546 q 561 533 572 546 l 425 346 l 611 71 l 710 71 l 710 0 l 390 0 l 390 71 l 450 71 l 342 231 l 235 82 q 259 74 235 77 q 300 71 283 71 l 300 0 l 24 0 z "},"}":{"ha":694,"x_min":161,"x_max":595,"o":"m 161 747 l 191 917 q 216 970 196 949 q 267 990 235 990 q 333 965 304 990 q 363 905 363 941 q 338 847 363 875 l 225 717 l 161 747 m 393 747 l 422 917 q 448 970 428 949 q 498 990 467 990 q 565 965 536 990 q 595 905 595 941 q 570 847 595 875 l 457 717 l 393 747 z "},"²":{"ha":1157,"x_min":20,"x_max":1136,"o":"m 20 0 l 20 71 l 115 71 l 115 546 l 37 546 l 37 616 l 115 616 l 115 765 q 173 888 115 842 q 313 954 231 935 q 469 972 395 972 q 545 959 508 972 q 606 920 581 945 q 854 972 699 972 q 942 957 902 972 l 1040 964 l 1040 71 l 1136 71 l 1136 0 l 789 0 l 789 71 l 885 71 l 885 546 l 656 546 l 656 71 l 751 71 l 751 0 l 404 0 l 404 71 l 500 71 l 500 546 l 271 546 l 271 71 l 367 71 l 367 0 l 20 0 m 262 616 l 500 616 l 500 760 q 465 831 465 787 q 507 907 465 881 q 449 917 482 917 q 316 877 370 917 q 262 761 262 838 l 262 616 m 647 616 l 885 616 l 885 778 q 850 848 850 804 q 876 913 850 889 q 833 917 856 917 q 742 900 785 917 q 673 847 699 883 q 647 761 647 811 l 647 616 z "},"%":{"ha":1157,"x_min":78,"x_max":1078,"o":"m 193 -36 q 200 -14 193 -26 l 783 871 q 644 843 723 843 q 447 893 542 843 q 463 762 463 834 q 447 635 463 700 q 392 526 431 570 q 290 482 353 482 q 131 566 184 482 q 78 762 78 650 q 100 897 78 833 q 170 1001 122 960 q 290 1042 218 1042 q 386 1002 340 1042 q 507 925 440 952 q 643 897 574 897 q 799 939 728 897 q 836 967 823 955 q 867 1002 848 979 q 893 1032 886 1025 q 921 1042 903 1042 q 950 1029 939 1042 q 962 1000 962 1017 q 957 978 962 991 l 271 -60 q 236 -78 257 -78 q 206 -65 218 -78 q 193 -36 193 -53 m 290 538 q 370 611 348 538 q 392 762 392 685 q 384 858 392 807 q 353 947 375 908 q 290 986 330 986 q 227 764 227 986 l 227 760 q 290 538 227 538 m 905 -78 q 746 6 799 -78 q 693 203 693 90 q 715 337 693 274 q 785 441 737 401 q 905 482 833 482 q 1038 395 998 482 q 1078 203 1078 307 q 1062 75 1078 140 q 1007 -34 1046 10 q 905 -78 968 -78 m 905 -22 q 985 52 962 -22 q 1007 203 1007 125 q 985 353 1007 279 q 905 427 963 427 q 842 204 842 427 l 842 200 q 905 -22 842 -22 z "},"?":{"ha":656,"x_min":78,"x_max":576,"o":"m 197 111 q 230 189 197 156 q 309 222 262 222 q 387 190 355 222 q 419 111 419 157 q 387 33 419 65 q 309 0 354 0 q 231 33 264 0 q 197 111 197 66 m 273 336 l 273 400 q 345 657 273 539 q 370 698 360 682 q 384 724 380 715 q 391 750 388 732 q 393 794 393 768 q 389 865 393 841 q 367 903 385 889 q 309 917 348 917 q 248 907 278 917 q 193 879 218 898 q 227 862 212 874 q 249 831 241 849 q 257 793 257 814 q 231 728 257 754 q 168 703 205 703 q 104 728 131 703 q 78 793 78 754 q 112 890 78 850 q 200 952 146 931 q 309 972 254 972 q 437 958 377 972 q 537 903 497 943 q 576 793 576 863 q 557 715 576 751 q 505 657 538 679 q 423 587 459 627 q 366 498 387 547 q 345 396 345 448 l 345 336 q 326 318 341 322 l 290 318 q 273 336 276 322 z "},"F":{"ha":871,"x_min":47,"x_max":812,"o":"m 47 0 l 47 71 l 178 71 l 178 882 l 47 882 l 47 953 l 770 953 l 812 612 l 742 612 q 709 766 729 711 q 639 852 689 822 q 493 882 589 882 l 380 882 l 380 513 l 403 513 q 486 532 459 513 q 519 584 512 551 q 526 675 526 616 l 597 675 l 597 279 l 526 279 q 519 371 526 338 q 486 422 512 404 q 403 441 460 441 l 380 441 l 380 71 l 545 71 l 545 0 l 47 0 z "},"°":{"ha":771,"x_min":20,"x_max":751,"o":"m 20 0 l 20 71 l 115 71 l 115 546 l 37 546 l 37 616 l 115 616 l 115 765 q 173 888 115 842 q 313 954 231 935 q 469 972 395 972 q 557 957 517 972 l 656 964 l 656 71 l 751 71 l 751 0 l 404 0 l 404 71 l 500 71 l 500 546 l 271 546 l 271 71 l 367 71 l 367 0 l 20 0 m 262 616 l 500 616 l 500 778 q 465 848 465 804 q 492 913 465 890 q 449 917 471 917 q 357 900 400 917 q 288 847 314 883 q 262 761 262 811 l 262 616 z "},">":{"ha":656,"x_min":78,"x_max":576,"o":"m 78 -97 q 89 -28 78 -55 q 123 19 100 -2 q 175 68 145 40 q 247 174 221 114 q 273 298 273 234 l 273 359 q 290 376 276 372 l 326 376 q 345 359 341 372 l 345 294 q 327 146 345 219 q 277 1 310 73 q 261 -100 261 -31 q 264 -200 261 -183 q 310 -222 275 -222 q 457 -183 399 -222 q 413 -151 429 -175 q 397 -98 397 -127 q 423 -34 397 -60 q 488 -8 449 -8 q 533 -20 513 -8 q 565 -52 553 -31 q 576 -98 576 -73 q 492 -234 576 -191 q 309 -278 408 -278 q 143 -236 208 -278 q 78 -97 78 -194 m 197 583 q 230 661 197 628 q 309 694 262 694 q 387 662 355 694 q 419 583 419 629 q 387 505 419 537 q 309 472 354 472 q 231 505 264 472 q 197 583 197 538 z "},"∙":{"ha":694,"x_min":155,"x_max":538,"o":"m 155 847 l 192 908 l 347 838 l 501 908 l 538 847 l 347 718 l 155 847 z "},"S":{"ha":771,"x_min":78,"x_max":693,"o":"m 78 3 l 78 300 q 96 317 81 313 l 132 317 q 149 300 145 313 q 184 166 149 222 q 282 83 220 110 q 424 56 345 56 q 520 102 488 56 q 553 215 553 149 q 541 281 553 248 q 506 338 530 313 q 449 371 482 362 l 282 412 q 134 514 191 435 q 78 686 78 592 q 111 831 78 767 q 204 932 144 896 q 347 968 265 968 q 546 899 467 968 l 610 962 q 623 968 615 966 l 639 968 q 656 951 652 964 l 656 654 q 639 636 652 640 l 603 636 q 585 654 588 640 q 562 755 585 699 q 507 842 538 812 q 436 888 476 873 q 347 903 395 903 q 278 884 307 903 q 234 833 249 865 q 218 760 218 801 q 246 672 218 711 q 319 619 273 632 l 486 579 q 595 519 549 564 q 668 413 642 475 q 693 286 693 351 q 662 134 693 203 q 570 25 631 65 q 424 -16 509 -16 q 189 54 281 -16 l 123 -9 q 111 -16 118 -13 l 96 -16 q 78 3 81 -11 z "},"m":{"ha":1157,"x_min":31,"x_max":1156,"o":"m 31 0 l 31 71 l 126 71 l 126 504 q 31 543 126 543 l 31 614 l 275 625 l 275 490 q 361 588 307 551 q 484 625 416 625 q 667 504 637 625 q 719 567 688 539 q 788 610 750 595 q 868 625 826 625 q 1014 577 968 625 q 1060 427 1060 528 l 1060 71 l 1156 71 l 1156 0 l 811 0 l 811 71 l 896 71 l 896 422 l 896 427 q 851 570 896 570 q 759 539 799 570 q 696 461 718 509 q 675 363 675 413 l 675 71 l 771 71 l 771 0 l 427 0 l 427 71 l 511 71 l 511 422 l 511 427 q 467 570 511 570 q 394 552 427 570 q 338 505 361 535 q 302 438 315 475 q 290 363 290 402 l 290 71 l 386 71 l 386 0 l 31 0 z "},"z":{"ha":616,"x_min":39,"x_max":557,"o":"m 64 0 q 46 7 54 0 q 39 25 39 14 l 39 40 q 43 54 39 48 l 366 561 l 306 561 q 167 516 205 561 q 129 368 129 471 l 58 368 l 75 616 l 529 616 q 547 610 541 616 q 554 591 554 603 l 554 579 q 550 566 554 572 l 229 61 l 296 61 q 436 106 392 61 q 471 177 460 131 q 486 286 481 222 l 557 286 l 532 0 l 64 0 z "},"'":{"ha":385,"x_min":82,"x_max":323,"o":"m 129 503 q 138 519 129 513 q 230 633 193 565 q 267 768 267 701 q 193 742 236 742 q 114 773 146 742 q 82 852 82 805 q 114 932 82 901 q 193 964 146 964 q 265 938 235 964 q 309 871 295 911 q 323 790 323 830 q 306 674 323 732 q 255 567 288 616 q 175 479 222 518 q 160 472 169 472 q 139 482 149 472 q 129 503 129 492 z "},"H":{"ha":1088,"x_min":47,"x_max":1039,"o":"m 47 0 l 47 71 l 178 71 l 178 882 l 47 882 l 47 953 l 511 953 l 511 882 l 380 882 l 380 530 l 705 530 l 705 882 l 575 882 l 575 953 l 1039 953 l 1039 882 l 908 882 l 908 71 l 1039 71 l 1039 0 l 575 0 l 575 71 l 705 71 l 705 460 l 380 460 l 380 71 l 511 71 l 511 0 l 47 0 z "},"U":{"ha":1068,"x_min":47,"x_max":1019,"o":"m 178 315 l 178 882 l 47 882 l 47 953 l 511 953 l 511 882 l 380 882 l 380 315 q 387 214 380 260 q 413 133 394 169 q 468 76 431 97 q 564 56 505 56 q 699 89 644 56 q 782 181 755 121 q 810 321 810 240 l 810 869 q 797 877 810 874 q 777 879 784 879 q 679 882 745 882 l 679 953 l 1019 953 l 1019 882 q 922 879 954 882 q 902 877 916 879 q 889 869 889 874 l 889 315 q 866 183 889 243 q 800 77 843 122 q 696 8 758 33 q 564 -16 635 -16 q 418 5 488 -16 q 294 68 349 25 q 208 173 238 111 q 178 315 178 235 z "},"[":{"ha":389,"x_min":149,"x_max":357,"o":"m 149 -347 l 149 1042 l 357 1042 l 357 957 l 233 957 l 233 -262 l 357 -262 l 357 -347 l 149 -347 z "},"¶":{"ha":694,"x_min":285,"x_max":557,"o":"m 285 757 l 399 939 q 467 982 425 982 q 510 969 490 982 q 544 935 531 956 q 557 892 557 914 q 515 825 557 851 l 335 707 l 285 757 z "},"À":{"ha":1257,"x_min":49,"x_max":1218,"o":"m 49 0 l 49 71 q 174 83 170 71 l 463 882 l 374 882 l 374 953 l 1136 953 l 1179 612 l 1108 612 q 1088 729 1100 681 q 1055 810 1077 777 q 989 863 1033 844 q 875 882 945 882 l 771 882 l 771 493 l 808 493 q 895 511 866 493 q 932 563 924 529 q 940 656 940 596 l 1011 656 l 1011 260 l 940 260 q 916 386 940 349 q 808 422 892 422 l 771 422 l 771 71 l 886 71 q 1038 111 986 71 q 1108 210 1089 151 q 1147 386 1128 269 l 1218 386 l 1154 0 l 484 0 l 484 71 l 582 71 l 582 422 l 380 422 l 257 82 q 289 75 257 75 q 367 71 324 71 l 367 0 l 49 0 m 406 493 l 582 493 l 582 882 l 546 882 l 406 493 z "},"b":{"ha":771,"x_min":20,"x_max":725,"o":"m 115 0 l 115 843 q 88 875 115 869 q 20 882 61 882 l 20 953 l 271 964 l 271 570 q 439 625 346 625 q 593 583 529 625 q 691 469 658 541 q 725 309 725 397 q 688 145 725 217 q 582 32 651 73 q 421 -8 512 -8 q 329 11 372 -8 q 252 65 286 31 l 186 0 l 115 0 m 279 126 q 408 47 330 47 q 498 89 469 47 q 535 183 528 130 q 542 307 542 236 l 542 311 q 522 494 542 418 q 424 570 501 570 q 344 549 381 570 q 279 493 307 529 l 279 126 z "},"o":{"ha":694,"x_min":39,"x_max":654,"o":"m 347 -8 q 185 31 254 -8 q 77 140 115 69 q 39 302 39 212 q 59 432 39 372 q 120 536 80 492 q 218 605 160 581 q 347 629 277 629 q 476 605 418 629 q 574 536 534 581 q 634 433 613 492 q 654 302 654 374 q 616 140 654 212 q 509 31 578 69 q 347 -8 439 -8 m 347 53 q 431 96 404 53 q 465 193 458 138 q 471 321 471 248 q 468 413 471 373 q 454 489 465 452 q 417 550 443 526 q 347 574 391 574 q 262 534 290 574 q 229 443 235 494 q 222 321 222 391 q 229 194 222 248 q 262 96 235 139 q 347 53 290 53 z "},"Ã":{"ha":385,"x_min":8,"x_max":407,"o":"m 26 387 l 8 456 l 389 558 l 407 489 l 26 387 z "},")":{"ha":539,"x_min":78,"x_max":414,"o":"m 96 -346 q 78 -326 78 -342 q 83 -314 78 -317 q 179 -169 141 -248 q 237 -7 216 -91 q 265 165 257 76 q 273 349 273 254 q 232 718 273 551 q 83 1010 191 886 q 78 1022 78 1015 q 96 1042 78 1037 l 117 1042 q 129 1036 119 1041 q 291 845 227 957 q 384 607 355 734 q 414 349 414 479 q 397 153 414 249 q 347 -33 381 58 q 258 -202 313 -123 q 129 -340 203 -281 q 117 -346 119 -345 l 96 -346 z "},"J":{"ha":717,"x_min":-5,"x_max":637,"o":"m 149 58 q 237 40 190 40 q 319 90 294 40 q 345 203 345 139 l 345 882 l 174 882 l 174 953 l 637 953 l 637 882 l 539 882 l 539 197 q 493 76 539 124 q 378 6 448 27 q 237 -16 309 -16 q 70 28 146 -16 q -5 158 -5 72 q 26 237 -5 205 q 104 268 57 268 q 158 254 133 268 q 198 214 184 239 q 212 158 212 188 q 196 99 212 125 q 149 58 179 73 z "},"W":{"ha":1435,"x_min":29,"x_max":1404,"o":"m 427 14 l 135 882 l 29 882 l 29 953 l 456 953 l 456 882 l 340 882 l 539 294 l 679 714 l 623 882 l 517 882 l 517 953 l 943 953 l 943 882 l 829 882 l 1026 294 l 1219 871 q 1185 878 1216 874 q 1096 882 1141 882 l 1096 953 l 1404 953 l 1404 882 q 1334 880 1371 882 q 1295 869 1297 878 l 1007 14 q 972 -11 998 -11 l 950 -11 q 916 14 922 -11 l 717 603 l 518 14 q 484 -11 511 -11 l 461 -11 q 427 14 435 -11 z "},"]":{"ha":389,"x_min":31,"x_max":239,"o":"m 31 -347 l 31 -262 l 154 -262 l 154 957 l 31 957 l 31 1042 l 239 1042 l 239 -347 l 31 -347 z "},"d":{"ha":771,"x_min":46,"x_max":751,"o":"m 334 -8 q 179 34 244 -8 q 80 148 114 75 q 46 309 46 221 q 83 472 46 399 q 189 585 120 544 q 349 625 257 625 q 500 574 433 625 l 500 843 q 473 875 500 869 q 404 882 446 882 l 404 953 l 656 964 l 656 110 q 683 78 656 85 q 751 71 710 71 l 751 0 l 492 -8 l 492 47 q 334 -8 424 -8 m 347 47 q 430 71 393 47 q 492 134 467 94 l 492 498 q 435 550 469 530 q 363 570 400 570 q 273 529 302 570 q 236 435 243 488 q 229 311 229 382 l 229 307 q 232 219 229 259 q 245 139 235 178 q 281 74 256 100 q 347 47 306 47 z "},"q":{"ha":732,"x_min":46,"x_max":751,"o":"m 396 -269 l 396 -199 l 492 -199 l 492 50 q 335 -8 420 -8 q 180 34 245 -8 q 80 148 115 75 q 46 309 46 220 q 82 470 46 397 q 188 584 119 543 q 347 625 256 625 q 446 599 399 625 q 522 530 492 573 l 593 625 l 656 625 l 656 -199 l 751 -199 l 751 -269 l 396 -269 m 347 47 q 437 79 398 47 q 500 160 477 111 l 500 428 q 450 524 484 485 q 363 564 415 564 q 282 520 313 564 q 240 418 252 477 q 229 309 229 359 q 255 134 229 220 q 347 47 281 47 z "},"~":{"ha":694,"x_min":115,"x_max":578,"o":"m 115 839 l 176 917 q 264 964 214 964 q 306 958 285 964 q 360 939 326 951 q 410 921 395 926 q 447 917 425 917 q 533 964 499 917 l 578 929 l 517 851 q 429 804 479 804 q 395 808 408 804 q 344 826 381 812 q 288 845 307 840 q 245 851 268 851 q 160 804 194 851 l 115 839 z "},"+":{"ha":1079,"x_min":78,"x_max":1002,"o":"m 118 306 q 90 320 101 308 q 78 349 78 332 q 90 376 78 365 q 118 390 101 388 l 497 390 l 497 770 q 512 799 499 787 q 541 810 524 810 q 560 804 551 810 q 575 789 569 799 q 582 770 581 780 l 582 390 l 962 390 q 990 376 979 388 q 1002 349 1002 365 q 990 320 1002 332 q 962 306 979 308 l 582 306 l 582 -74 q 568 -102 580 -91 q 541 -114 555 -114 q 512 -102 524 -114 q 497 -74 499 -91 l 497 306 l 118 306 z "},"L":{"ha":833,"x_min":47,"x_max":774,"o":"m 47 0 l 47 71 l 178 71 l 178 882 l 47 882 l 47 953 l 545 953 l 545 882 l 380 882 l 380 71 l 473 71 q 559 90 517 71 q 629 146 600 110 q 680 245 666 191 q 703 386 693 299 l 774 386 l 730 0 l 47 0 z "},"Y":{"ha":1048,"x_min":22,"x_max":1026,"o":"m 296 0 l 296 71 l 427 71 l 427 380 l 143 882 l 22 882 l 22 953 l 468 953 l 468 882 l 367 882 l 590 488 l 808 871 q 774 879 808 876 q 714 882 739 882 l 714 953 l 1026 953 l 1026 882 q 900 869 909 882 l 621 380 l 621 71 l 753 71 l 753 0 l 296 0 z "},"f":{"ha":424,"x_min":35,"x_max":558,"o":"m 35 0 l 35 71 l 131 71 l 131 546 l 53 546 l 53 616 l 131 616 l 131 765 q 174 883 131 836 q 283 951 217 930 q 419 972 349 972 q 516 937 475 972 q 558 848 558 902 q 532 785 558 811 q 471 760 507 760 q 408 786 435 760 q 382 848 382 812 q 412 917 382 891 l 406 917 q 311 871 343 917 q 278 761 278 825 l 278 616 l 412 616 l 412 546 l 286 546 l 286 71 l 407 71 l 407 0 l 35 0 z "},"¸":{"ha":694,"x_min":126,"x_max":567,"o":"m 347 701 q 231 739 281 701 q 153 838 180 777 q 126 964 126 898 l 182 964 q 231 844 182 896 q 347 793 279 793 q 430 817 393 793 q 490 880 468 841 q 511 964 511 920 l 567 964 q 540 838 567 899 q 463 740 513 778 q 347 701 413 701 z "},"s":{"ha":547,"x_min":46,"x_max":500,"o":"m 46 9 l 46 203 q 64 220 50 216 l 100 220 q 117 203 113 215 q 273 47 153 47 q 396 149 396 47 q 383 194 396 174 q 349 227 370 214 q 304 245 328 240 l 221 262 q 96 327 146 281 q 46 443 46 374 q 63 530 46 493 q 112 588 81 566 q 184 620 144 610 q 273 629 224 629 q 382 606 338 629 l 427 628 l 432 629 l 449 629 q 465 612 462 626 l 465 460 q 449 441 462 445 l 412 441 q 395 460 398 445 q 379 523 395 496 q 336 565 364 550 q 271 579 309 579 q 150 496 150 579 q 176 445 150 465 q 236 415 202 424 l 321 399 q 412 359 372 386 q 476 291 452 332 q 500 197 500 249 q 439 42 500 93 q 273 -8 378 -8 q 143 31 195 -8 l 85 -7 l 79 -8 l 64 -8 q 46 9 50 -5 z "}," ":{"ha":463,"x_min":0,"x_max":0,"o":""},"-":{"ha":463,"x_min":16,"x_max":383,"o":"m 16 239 l 16 379 l 383 379 l 383 239 l 16 239 z "},":":{"ha":385,"x_min":82,"x_max":304,"o":"m 82 111 q 115 189 82 156 q 193 222 147 222 q 272 190 239 222 q 304 111 304 157 q 271 33 304 65 q 193 0 238 0 q 115 33 149 0 q 82 111 82 66 m 82 505 q 115 584 82 551 q 193 616 147 616 q 272 585 239 616 q 304 505 304 553 q 272 427 304 458 q 193 395 239 395 q 115 427 147 395 q 82 505 82 460 z "},"A":{"ha":1048,"x_min":49,"x_max":1000,"o":"m 49 0 l 49 71 q 172 83 168 71 l 473 945 q 509 970 484 970 l 541 970 q 561 963 551 970 q 575 945 571 956 l 880 71 l 1000 71 l 1000 0 l 559 0 l 559 71 l 673 71 l 612 245 l 313 245 l 257 82 q 366 71 257 71 l 366 0 l 49 0 m 338 317 l 587 317 l 463 673 l 338 317 z "},"N":{"ha":1088,"x_min":47,"x_max":1039,"o":"m 47 0 l 47 71 q 144 74 113 71 q 178 83 178 74 l 178 882 l 47 882 l 47 953 l 366 953 q 382 945 378 949 l 829 323 l 829 869 q 817 877 829 874 q 796 879 804 879 q 699 882 764 882 l 699 953 l 1039 953 l 1039 882 q 942 879 974 882 q 921 877 935 879 q 908 869 908 874 l 908 22 q 886 0 904 4 l 851 0 q 836 8 839 3 l 257 810 l 257 83 q 290 74 257 74 q 387 71 322 71 l 387 0 l 47 0 z "},"\\":{"ha":755,"x_min":129,"x_max":708,"o":"m 260 472 q 163 526 197 472 q 129 646 129 579 q 168 819 129 736 q 278 957 208 901 q 293 964 285 964 q 314 954 304 964 q 323 933 323 945 q 315 917 323 923 q 223 803 260 872 q 186 668 186 734 q 260 694 216 694 q 338 662 306 694 q 371 583 371 629 q 339 504 371 536 q 260 472 307 472 m 597 472 q 501 526 535 472 q 467 646 467 579 q 484 762 467 704 q 534 869 502 820 q 615 957 567 918 q 631 964 622 964 q 651 954 641 964 q 661 933 661 945 q 653 917 661 923 q 561 803 598 872 q 524 668 524 734 q 597 694 554 694 q 676 662 644 694 q 708 583 708 629 q 676 504 708 536 q 597 472 645 472 z "},"h":{"ha":771,"x_min":31,"x_max":771,"o":"m 31 0 l 31 71 l 126 71 l 126 843 q 99 875 126 869 q 31 882 72 882 l 31 953 l 282 964 l 282 503 q 368 592 315 559 q 484 625 420 625 q 593 604 551 625 q 655 539 635 583 q 675 427 675 495 l 675 71 l 771 71 l 771 0 l 427 0 l 427 71 l 511 71 l 511 422 l 511 427 q 467 570 511 570 q 394 552 427 570 q 338 505 361 535 q 302 438 315 475 q 290 363 290 402 l 290 71 l 386 71 l 386 0 l 31 0 z "},"u":{"ha":771,"x_min":31,"x_max":771,"o":"m 126 161 l 126 504 q 31 543 126 543 l 31 614 l 290 625 l 290 167 l 290 161 q 295 90 290 112 q 318 58 299 68 q 380 47 336 47 q 477 101 442 47 q 511 221 511 155 l 511 504 q 415 543 511 543 l 415 614 l 675 625 l 675 110 q 702 78 675 85 q 771 71 730 71 l 771 0 l 519 -8 l 519 83 q 368 -8 463 -8 q 245 4 297 -8 q 160 54 193 17 q 126 161 126 92 z "},"Ä":{"ha":694,"x_min":109,"x_max":585,"o":"m 109 863 q 139 935 109 905 q 212 965 170 965 q 263 951 239 965 q 301 913 287 938 q 315 863 315 889 q 284 789 315 820 q 212 758 254 758 q 139 789 170 758 q 109 863 109 820 m 378 863 q 409 935 378 905 q 482 965 439 965 q 533 951 509 965 q 571 913 557 937 q 585 863 585 889 q 554 789 585 820 q 482 758 524 758 q 409 789 440 758 q 378 863 378 821 z "},"/":{"ha":694,"x_min":78,"x_max":615,"o":"m 78 -306 q 81 -292 78 -296 l 533 1013 q 574 1042 543 1042 q 603 1029 591 1042 q 615 1000 615 1017 q 614 986 615 990 l 161 -318 q 121 -347 149 -347 q 91 -334 104 -347 q 78 -306 78 -321 z "},"C":{"ha":1003,"x_min":78,"x_max":924,"o":"m 349 186 q 455 89 389 122 q 600 56 522 56 q 730 94 673 56 q 820 196 787 132 q 852 330 852 260 q 871 347 857 344 l 907 347 q 924 326 924 343 q 896 193 924 255 q 818 83 868 130 q 703 10 767 36 q 571 -16 640 -16 q 371 19 461 -16 q 214 120 280 54 q 113 276 149 185 q 78 476 78 366 q 114 677 78 587 q 214 833 149 768 q 370 932 278 897 q 571 968 461 968 q 789 884 693 968 l 878 962 q 890 968 883 966 l 907 968 q 924 951 920 964 l 924 607 q 907 589 920 592 l 863 589 q 844 607 848 592 q 825 700 844 646 q 783 789 806 753 q 702 867 750 838 q 597 897 653 897 q 455 864 520 897 q 349 766 389 831 q 314 680 326 729 q 299 588 302 631 q 296 479 296 545 l 296 475 q 306 311 296 380 q 349 186 316 243 z "},"±":{"ha":1157,"x_min":20,"x_max":1136,"o":"m 20 0 l 20 71 l 115 71 l 115 546 l 37 546 l 37 616 l 115 616 l 115 765 q 173 888 115 842 q 313 954 231 935 q 469 972 395 972 q 542 958 507 972 q 600 917 577 943 q 859 972 698 972 q 944 951 903 972 q 1010 891 985 929 q 1035 807 1035 852 q 1008 741 1035 768 q 942 714 981 714 q 874 741 902 714 q 847 807 847 768 q 864 862 847 837 q 911 897 881 888 q 839 917 876 917 q 745 900 789 917 q 674 848 701 883 q 647 761 647 812 l 647 616 l 789 616 l 789 621 l 1018 631 l 1040 631 l 1040 71 l 1136 71 l 1136 0 l 789 0 l 789 71 l 885 71 l 885 513 q 880 534 885 522 q 867 546 876 546 l 656 546 l 656 71 l 751 71 l 751 0 l 404 0 l 404 71 l 500 71 l 500 546 l 271 546 l 271 71 l 367 71 l 367 0 l 20 0 m 262 616 l 500 616 l 500 726 q 454 807 454 753 q 472 864 454 838 q 519 897 490 889 q 449 917 489 917 q 316 877 370 917 q 262 761 262 838 l 262 616 z "},"P":{"ha":949,"x_min":47,"x_max":869,"o":"m 47 0 l 47 71 l 178 71 l 178 882 l 47 882 l 47 953 l 543 953 q 706 923 631 953 q 825 831 780 892 q 869 679 869 769 q 824 531 869 591 q 704 443 779 471 q 543 414 629 414 l 380 414 l 380 71 l 511 71 l 511 0 l 47 0 m 372 476 l 489 476 q 579 489 545 476 q 629 526 613 501 q 648 584 644 551 q 652 679 652 617 q 643 798 652 757 q 600 860 634 838 q 489 882 566 882 l 372 882 l 372 476 z "},"j":{"ha":424,"x_min":-92,"x_max":339,"o":"m -92 -147 q -66 -83 -92 -109 q -3 -58 -41 -58 q 43 -70 22 -58 q 76 -102 64 -82 q 87 -147 87 -123 q 56 -218 87 -193 q 97 -222 74 -222 q 164 -171 144 -222 q 183 -62 183 -120 l 183 504 q 152 536 183 530 q 78 543 121 543 l 78 614 l 339 625 l 339 -68 q 303 -178 339 -130 q 211 -252 268 -226 q 94 -278 155 -278 q -34 -245 24 -278 q -92 -147 -92 -213 m 117 854 q 149 932 117 900 q 228 965 182 965 q 307 933 274 965 q 339 854 339 901 q 307 776 339 808 q 228 743 274 743 q 149 777 182 743 q 117 854 117 810 z "},"»":{"ha":616,"x_min":149,"x_max":545,"o":"m 149 -279 l 149 -224 q 380 -154 380 -224 q 344 -100 380 -116 q 264 -83 307 -83 l 264 -16 l 428 -16 l 428 -41 q 545 -154 545 -66 q 500 -224 545 -197 q 390 -262 456 -250 q 266 -277 323 -274 q 149 -279 208 -279 z "},"w":{"ha":1003,"x_min":29,"x_max":972,"o":"m 294 20 l 111 546 l 29 546 l 29 616 l 328 616 l 328 546 l 277 546 l 386 232 l 464 453 l 431 546 l 368 546 l 368 616 l 652 616 l 652 546 l 572 546 l 693 197 l 811 534 q 783 544 811 541 q 726 546 755 546 l 726 616 l 972 616 l 972 546 q 886 533 890 546 l 707 20 q 671 -5 698 -5 l 650 -5 q 614 20 623 -5 l 501 346 l 387 20 q 351 -5 378 -5 l 330 -5 q 294 20 303 -5 z "},"$":{"ha":694,"x_min":78,"x_max":615,"o":"m 151 65 q 78 262 78 138 q 104 328 78 302 q 168 354 130 354 q 213 342 193 354 q 245 310 233 331 q 257 264 257 289 q 232 200 257 225 q 168 175 207 175 l 164 175 q 222 101 183 130 q 311 65 260 73 l 311 406 q 140 506 201 434 q 78 689 78 578 q 94 792 78 743 q 139 878 109 840 q 213 940 170 916 q 311 971 257 965 l 311 1042 l 382 1042 l 382 971 q 472 949 424 971 q 549 899 521 928 q 599 818 583 863 q 615 720 615 772 q 590 655 615 681 q 526 629 565 629 q 462 655 488 629 q 436 720 436 681 q 461 783 436 757 q 525 808 486 808 q 467 871 505 848 q 382 899 429 893 l 382 597 q 480 556 437 583 q 554 490 524 529 q 600 401 584 452 q 615 294 615 351 q 555 92 615 178 q 382 -7 494 7 l 382 -78 l 311 -78 l 311 -7 q 227 14 273 -7 q 151 65 181 35 m 382 66 q 469 122 439 77 q 498 228 498 167 q 484 297 498 264 q 443 354 469 330 q 382 387 416 378 l 382 66 m 311 614 l 311 899 q 226 851 257 890 q 195 755 195 812 q 228 667 195 706 q 311 614 261 627 z "},"E":{"ha":909,"x_min":47,"x_max":871,"o":"m 47 0 l 47 71 l 178 71 l 178 882 l 47 882 l 47 953 l 789 953 l 832 612 l 761 612 q 726 771 747 718 q 653 853 705 825 q 503 882 602 882 l 380 882 l 380 530 l 407 530 q 512 568 489 530 q 534 693 534 605 l 606 693 l 606 297 l 534 297 q 527 390 534 357 q 491 441 519 423 q 407 460 464 460 l 380 460 l 380 71 l 514 71 q 678 107 622 71 q 758 208 734 144 q 800 386 781 271 l 871 386 l 807 0 l 47 0 z "},"´":{"ha":424,"x_min":-92,"x_max":339,"o":"m -92 -147 q -66 -83 -92 -109 q -3 -58 -41 -58 q 43 -70 22 -58 q 76 -102 64 -82 q 87 -147 87 -123 q 56 -218 87 -193 q 97 -222 74 -222 q 164 -171 144 -222 q 183 -62 183 -120 l 183 504 q 152 536 183 530 q 78 543 121 543 l 78 614 l 339 625 l 339 -68 q 303 -178 339 -130 q 211 -252 268 -226 q 94 -278 155 -278 q -34 -245 24 -278 q -92 -147 -92 -213 z "},"<":{"ha":424,"x_min":100,"x_max":325,"o":"m 100 -184 q 101 -178 100 -181 q 102 -172 102 -174 l 178 359 q 195 376 180 372 l 231 376 q 249 359 245 372 l 323 -172 q 325 -178 324 -175 q 325 -184 325 -180 q 290 -256 325 -227 q 212 -285 256 -285 q 135 -256 170 -285 q 100 -184 100 -227 m 102 583 q 134 662 102 629 q 212 694 165 694 q 291 662 258 694 q 323 583 323 629 q 290 505 323 537 q 212 472 257 472 q 134 505 167 472 q 102 583 102 537 z "},"¯":{"ha":771,"x_min":20,"x_max":751,"o":"m 20 0 l 20 71 l 115 71 l 115 546 l 37 546 l 37 616 l 115 616 l 115 765 q 174 889 115 843 q 314 954 233 936 q 473 972 395 972 q 559 951 518 972 q 625 891 600 930 q 650 807 650 852 q 623 741 650 768 q 557 714 595 714 q 490 741 517 714 q 463 807 463 768 q 479 862 463 837 q 526 897 496 888 q 454 917 490 917 q 318 877 374 917 q 262 761 262 838 l 262 616 l 404 616 l 404 621 l 633 631 l 656 631 l 656 71 l 751 71 l 751 0 l 404 0 l 404 71 l 500 71 l 500 513 q 495 535 500 524 q 482 546 491 546 l 271 546 l 271 71 l 367 71 l 367 0 l 20 0 z "},"R":{"ha":1054,"x_min":47,"x_max":1050,"o":"m 47 0 l 47 71 l 178 71 l 178 882 l 47 882 l 47 953 l 500 953 q 632 940 568 953 q 753 897 696 926 q 845 815 810 867 q 880 693 880 764 q 852 591 880 636 q 777 516 823 547 q 675 469 731 486 q 768 401 730 446 q 814 298 807 356 l 829 178 q 854 78 838 115 q 914 40 870 40 q 952 56 937 40 q 973 95 966 72 q 979 140 979 119 q 1002 163 983 159 l 1028 163 q 1050 135 1050 159 q 1033 63 1050 98 q 984 6 1015 28 q 916 -16 954 -16 q 701 24 790 -16 q 611 172 611 64 l 611 293 q 582 401 611 353 q 497 449 553 449 l 372 449 l 372 71 l 503 71 l 503 0 l 47 0 m 372 504 l 473 504 q 590 521 550 504 q 647 578 631 538 q 663 693 663 618 q 648 809 663 769 q 592 865 633 849 q 473 882 551 882 l 372 882 l 372 504 z "},"l":{"ha":385,"x_min":33,"x_max":380,"o":"m 33 0 l 33 71 l 129 71 l 129 843 q 102 875 129 869 q 33 882 75 882 l 33 953 l 285 964 l 285 71 l 380 71 l 380 0 l 33 0 z "},"y":{"ha":732,"x_min":26,"x_max":701,"o":"m 154 -278 q 64 -239 102 -278 q 26 -146 26 -199 q 50 -87 26 -111 q 110 -64 74 -64 q 168 -87 144 -64 q 192 -146 192 -111 q 146 -221 192 -201 q 154 -222 149 -222 q 235 -189 201 -222 q 288 -107 269 -155 l 328 0 l 119 546 l 31 546 l 31 616 l 363 616 l 363 546 l 286 546 l 411 218 l 533 534 q 508 544 533 541 q 460 546 484 546 l 460 616 l 701 616 l 701 546 q 608 533 614 546 l 363 -107 q 280 -228 335 -178 q 154 -278 225 -278 z "}," ":{"ha":463,"x_min":0,"x_max":0,"o":""},"&":{"ha":1079,"x_min":58,"x_max":1010,"o":"m 58 195 q 115 328 58 271 l 253 460 q 196 733 196 594 q 228 855 196 798 q 314 946 259 912 q 433 979 368 979 q 511 950 480 979 q 557 877 543 921 q 572 790 572 833 q 545 700 572 748 q 487 617 517 652 q 401 526 456 583 q 455 422 422 477 q 530 312 488 368 q 604 216 572 255 q 743 425 662 285 l 806 534 q 697 546 806 546 l 697 616 l 1010 616 l 1010 546 q 884 533 895 546 l 806 397 q 728 272 765 328 q 648 165 691 216 q 730 89 688 121 q 811 56 771 56 q 894 87 858 56 q 930 164 930 118 l 1002 164 q 974 72 1002 113 q 902 7 946 31 q 808 -16 858 -16 q 678 7 741 -16 q 551 72 614 29 q 433 7 494 29 q 309 -16 372 -16 q 189 10 246 -16 q 95 83 131 35 q 58 195 58 130 m 322 56 q 498 114 412 56 q 411 203 450 157 q 338 300 371 249 q 278 404 304 351 q 241 245 241 353 q 322 56 241 56 m 379 585 q 437 650 412 618 q 482 719 463 682 q 501 790 501 755 q 487 882 501 840 q 433 924 472 924 q 383 902 403 924 q 354 849 363 880 q 345 789 345 819 q 379 585 345 685 z "},"@":{"ha":1079,"x_min":78,"x_max":1002,"o":"m 541 -8 q 348 28 432 -8 q 202 131 263 64 q 110 288 141 198 q 78 482 78 378 q 110 677 78 587 q 202 834 142 768 q 347 937 262 901 q 541 972 432 972 q 734 936 648 972 q 880 833 820 900 q 970 677 939 767 q 1002 482 1002 587 q 970 269 1002 361 q 842 176 939 176 q 679 229 728 176 q 541 176 617 176 q 391 217 453 176 q 295 327 328 258 q 262 482 262 397 q 295 636 262 566 q 390 747 328 706 q 541 787 453 787 q 651 755 600 787 q 730 668 701 723 l 800 668 q 817 652 813 665 l 817 298 q 848 232 817 232 q 930 481 930 232 q 886 702 930 602 q 753 859 841 802 q 541 917 665 917 q 328 859 416 917 q 194 703 239 802 q 149 482 149 604 q 174 313 149 393 q 250 173 199 233 q 374 81 301 114 q 541 47 448 47 q 896 129 727 47 l 901 131 l 985 131 q 1002 111 1002 125 q 990 93 1002 98 q 883 49 934 66 q 771 18 833 32 q 655 -2 709 4 q 541 -8 602 -8 m 541 232 q 653 296 608 232 l 653 652 q 657 661 657 660 q 607 712 639 692 q 541 732 576 732 q 470 687 496 732 q 435 588 444 643 q 427 482 427 532 q 435 376 427 432 q 470 276 444 321 q 541 232 496 232 z "},"G":{"ha":1092,"x_min":78,"x_max":1021,"o":"m 349 187 q 397 130 370 155 q 458 89 425 105 q 529 64 492 72 q 604 56 565 56 q 662 70 634 56 q 706 110 690 85 q 722 167 722 136 l 722 313 l 549 313 l 549 383 l 1021 383 l 1021 313 l 925 313 l 925 18 q 905 0 921 0 q 899 1 904 0 q 852 22 876 12 q 808 43 829 32 q 770 69 787 54 q 684 6 739 28 q 571 -16 630 -16 q 371 19 461 -16 q 214 120 280 54 q 113 276 149 185 q 78 476 78 366 q 114 677 78 587 q 214 833 149 768 q 370 932 278 897 q 571 968 461 968 q 687 946 631 968 q 790 884 743 924 l 879 962 q 892 968 886 966 l 908 968 q 925 951 922 964 l 925 607 q 908 589 922 592 l 864 589 q 846 607 849 592 q 827 700 846 646 q 785 789 808 753 q 703 867 751 838 q 599 897 654 897 q 455 864 520 897 q 349 766 389 831 q 305 641 315 709 q 296 476 296 572 q 299 368 296 411 q 314 275 302 324 q 349 187 326 225 z "},"T":{"ha":964,"x_min":50,"x_max":913,"o":"m 195 0 l 195 71 l 380 71 l 380 882 l 313 882 q 174 828 223 882 q 145 772 156 807 q 130 695 135 737 q 121 612 124 653 l 50 612 l 79 953 l 884 953 l 913 612 l 842 612 q 824 749 834 698 q 789 828 814 801 q 650 882 739 882 l 583 882 l 583 71 l 770 71 l 770 0 l 195 0 z "},"µ":{"ha":694,"x_min":136,"x_max":408,"o":"m 178 825 q 136 892 136 851 q 164 955 136 928 q 227 982 192 982 q 294 939 269 982 l 408 757 l 358 707 l 178 825 z "},"a":{"ha":675,"x_min":39,"x_max":673,"o":"m 39 155 q 102 283 39 235 q 251 351 165 332 q 418 371 338 371 l 418 422 q 391 529 418 484 q 307 574 365 574 q 228 567 270 574 q 257 498 257 540 q 232 434 257 460 q 168 408 207 408 q 104 434 130 408 q 78 498 78 460 q 115 581 78 551 q 203 620 152 610 q 309 629 255 629 q 438 609 376 629 q 541 542 500 588 q 582 427 582 496 l 582 98 q 652 71 588 71 q 673 49 669 66 l 673 22 q 652 0 669 4 l 555 0 q 477 22 513 0 q 441 83 441 43 l 441 94 q 371 20 417 47 q 272 -8 325 -8 q 112 33 184 -8 q 39 155 39 75 m 289 47 q 354 66 325 47 q 401 116 384 85 q 418 182 418 146 l 418 321 q 319 301 368 321 q 239 244 271 282 q 207 155 207 206 q 230 82 207 116 q 289 47 252 47 z "},"n":{"ha":771,"x_min":31,"x_max":771,"o":"m 31 0 l 31 71 l 126 71 l 126 504 q 31 543 126 543 l 31 614 l 275 625 l 275 490 q 361 588 307 551 q 484 625 416 625 q 593 604 551 625 q 655 539 635 583 q 675 427 675 495 l 675 71 l 771 71 l 771 0 l 427 0 l 427 71 l 511 71 l 511 422 l 511 427 q 467 570 511 570 q 394 552 427 570 q 338 505 361 535 q 302 438 315 475 q 290 363 290 402 l 290 71 l 386 71 l 386 0 l 31 0 z "},"{":{"ha":694,"x_min":0,"x_max":693,"o":"m 0 353 l 0 408 l 693 408 l 693 353 l 0 353 z "},"|":{"ha":1389,"x_min":0,"x_max":1388,"o":"m 0 353 l 0 408 l 1388 408 l 1388 353 l 0 353 z "},"(":{"ha":539,"x_min":125,"x_max":461,"o":"m 411 -340 q 281 -200 336 -279 q 192 -29 227 -121 q 141 159 157 63 q 125 349 125 255 q 141 538 125 442 q 191 725 157 635 q 280 895 225 816 q 411 1036 334 974 q 424 1042 417 1040 l 444 1042 q 461 1022 461 1037 q 457 1010 461 1014 q 340 818 383 926 q 281 594 297 709 q 265 349 265 479 q 281 102 265 217 q 340 -122 297 -13 q 457 -314 383 -231 q 461 -326 461 -320 q 444 -346 461 -341 l 424 -346 q 411 -340 417 -345 z "},"I":{"ha":551,"x_min":36,"x_max":514,"o":"m 36 0 l 36 71 l 174 71 l 174 882 l 36 882 l 36 953 l 514 953 l 514 882 l 376 882 l 376 71 l 514 71 l 514 0 l 36 0 z "},"V":{"ha":1048,"x_min":31,"x_max":1018,"o":"m 472 14 l 144 882 l 31 882 l 31 953 l 465 953 l 465 882 l 353 882 l 586 265 l 815 871 q 803 876 815 874 q 785 878 791 878 q 707 882 745 882 l 707 953 l 1018 953 l 1018 882 q 942 880 981 882 q 900 869 903 878 l 576 14 q 541 -11 568 -11 l 509 -11 q 472 14 482 -11 z "},"c":{"ha":616,"x_min":46,"x_max":576,"o":"m 346 -8 q 186 33 254 -8 q 82 145 118 73 q 46 309 46 216 q 67 436 46 377 q 126 538 87 494 q 221 605 164 581 q 346 629 277 629 q 494 600 427 629 q 561 498 561 570 q 536 434 561 460 q 472 408 511 408 q 408 435 433 408 q 382 498 382 461 q 408 562 382 541 q 347 568 383 568 q 281 542 305 568 q 246 476 256 515 q 232 397 235 437 q 229 310 229 357 q 238 190 229 246 q 279 94 248 134 q 372 53 311 53 q 458 86 423 53 q 507 171 494 120 q 524 182 513 180 l 559 182 q 576 163 576 177 q 575 155 576 161 q 491 35 554 79 q 346 -8 427 -8 z "},"^":{"ha":694,"x_min":151,"x_max":542,"o":"m 196 733 l 151 787 l 347 964 l 542 787 l 497 733 l 347 844 l 196 733 z "},"p":{"ha":771,"x_min":20,"x_max":725,"o":"m 20 -269 l 20 -199 l 115 -199 l 115 519 q 20 543 115 543 l 20 614 l 271 625 l 271 568 q 444 625 347 625 q 566 600 513 625 q 653 532 618 575 q 707 431 688 490 q 725 309 725 373 q 688 145 725 217 q 582 32 651 73 q 421 -8 512 -8 q 279 40 340 -8 l 279 -199 l 375 -199 l 375 -269 l 20 -269 m 279 126 q 408 47 330 47 q 512 132 481 47 q 542 309 542 217 q 516 480 542 396 q 424 564 490 564 q 345 544 382 564 q 279 490 307 525 l 279 126 z "},"*":{"ha":694,"x_min":85,"x_max":608,"o":"m 151 546 q 104 568 124 546 q 85 616 85 591 q 117 667 85 654 l 286 733 l 117 800 q 85 850 85 812 q 104 899 85 876 q 151 921 124 921 q 183 908 171 921 l 314 791 l 283 978 q 282 986 282 981 q 302 1026 282 1010 q 347 1042 322 1042 q 391 1026 372 1042 q 411 986 411 1010 l 411 978 l 379 791 l 510 908 q 542 921 522 921 q 589 899 569 921 q 608 850 608 876 q 576 800 608 812 l 407 733 l 576 667 q 608 616 608 654 q 589 568 608 591 q 542 546 569 546 q 510 558 522 546 l 379 675 l 411 489 l 411 481 q 391 441 411 457 q 347 425 372 425 q 302 441 323 425 q 282 481 282 457 q 283 489 282 486 l 314 675 l 183 558 q 151 546 171 546 z "},"K":{"ha":1088,"x_min":47,"x_max":1029,"o":"m 47 0 l 47 71 l 178 71 l 178 882 l 47 882 l 47 953 l 511 953 l 511 882 l 380 882 l 380 469 l 783 871 q 773 876 783 874 q 757 878 762 878 q 693 882 726 882 l 693 953 l 1010 953 l 1010 882 q 884 869 897 882 l 600 587 l 918 83 q 1029 71 932 71 l 1029 0 l 615 0 l 615 71 q 707 82 707 71 l 469 457 l 380 368 l 380 71 l 511 71 l 511 0 l 47 0 z "},"X":{"ha":1048,"x_min":40,"x_max":1010,"o":"m 40 0 l 40 71 q 197 83 186 71 l 436 457 l 179 882 l 58 882 l 58 953 l 497 953 l 497 882 l 399 882 l 549 633 l 700 871 q 685 876 700 874 q 663 878 671 878 q 583 882 623 882 l 583 953 l 951 953 l 951 882 q 852 880 903 882 q 793 869 801 878 l 595 558 l 888 71 l 1010 71 l 1010 0 l 570 0 l 570 71 l 669 71 l 482 382 l 292 82 q 306 78 292 80 q 328 75 321 75 q 408 71 365 71 l 408 0 l 40 0 z "},"e":{"ha":647,"x_min":39,"x_max":608,"o":"m 39 313 q 76 475 39 403 q 183 588 113 547 q 343 629 252 629 q 494 592 435 629 q 581 487 553 554 q 608 330 608 419 q 586 302 608 310 l 222 302 q 232 180 222 234 q 277 90 242 126 q 378 53 311 53 q 479 85 434 53 q 539 171 524 118 q 559 187 547 184 l 586 187 q 608 163 608 182 q 607 154 608 161 q 554 67 591 103 q 467 11 517 31 q 363 -8 416 -8 q 233 15 292 -8 q 130 80 173 37 q 62 181 86 122 q 39 313 39 241 m 222 354 l 471 354 q 460 455 471 406 q 421 539 450 504 q 343 574 393 574 q 247 508 271 574 q 222 354 222 442 z "},"¹":{"ha":694,"x_min":96,"x_max":597,"o":"m 96 765 l 96 843 l 597 843 l 597 765 l 96 765 z "},"r":{"ha":593,"x_min":20,"x_max":555,"o":"m 20 0 l 20 71 l 115 71 l 115 504 q 20 543 115 543 l 20 614 l 256 625 l 256 511 q 312 594 275 563 q 399 625 348 625 q 472 612 435 625 q 532 573 508 600 q 555 509 555 547 q 530 447 555 473 q 468 421 505 421 q 406 447 431 421 q 380 509 380 473 q 403 570 380 545 l 399 570 q 297 488 323 570 q 271 307 271 406 l 271 71 l 392 71 l 392 0 l 20 0 z "}}}
